<?xml version="1.0" encoding="UTF-8"?>
<svg version="1.1" xmlns="http://www.w3.org/2000/svg" width="200" height="200" viewBox="245 28 122 122" preserveAspectRatio="xMidYMid meet">
<path d="M0 0 C2.91162109 1.33178711 2.91162109 1.33178711 5.7734375 3.02734375 C6.83796143 3.65036377 7.90248535 4.27338379 8.99926758 4.9152832 C10.11325928 5.58261475 11.22725098 6.24994629 12.375 6.9375 C13.53540894 7.62112756 14.69646591 8.30365628 15.8581543 8.98510742 C19.24671443 10.97678606 22.62386996 12.98731693 26 15 C28.54835957 16.51268411 31.09763127 18.02376585 33.64892578 19.53149414 C35.04718974 20.35937622 36.44289402 21.19160372 37.83544922 22.02905273 C41.14030067 23.99877179 44.37680577 25.69565008 48 27 C48 27.99 48 28.98 48 30 C47.15695312 30.40992187 46.31390625 30.81984375 45.4453125 31.2421875 C44.34960938 31.78101563 43.25390625 32.31984375 42.125 32.875 C41.03445313 33.40867188 39.94390625 33.94234375 38.8203125 34.4921875 C35.96117453 35.84535937 35.96117453 35.84535937 34 38 C27.25782551 34.79840876 20.75903609 31.35881318 14.375 27.5 C13.74094238 27.11739014 13.10688477 26.73478027 12.45361328 26.34057617 C9.60200707 24.61006068 6.77339268 22.85476133 3.96484375 21.0546875 C3.08957031 20.50039063 2.21429688 19.94609375 1.3125 19.375 C0.56613281 18.88773438 -0.18023437 18.40046875 -0.94921875 17.8984375 C-3.55381971 16.75737422 -4.32881146 17.10496377 -7 18 C-8.78565392 18.921403 -10.54396775 19.89659967 -12.28125 20.90625 C-13.28800781 21.48503906 -14.29476562 22.06382813 -15.33203125 22.66015625 C-16.37746094 23.26730469 -17.42289062 23.87445313 -18.5 24.5 C-20.57033324 25.70237603 -22.64315406 26.90048166 -24.71875 28.09375 C-26.09450195 28.89329102 -26.09450195 28.89329102 -27.49804688 29.70898438 C-29.70983614 30.85027454 -31.56963135 31.53666656 -34 32 C-34 32.99 -34 33.98 -34 35 C-33.319375 35.268125 -32.63875 35.53625 -31.9375 35.8125 C-28.60289191 37.16053306 -25.30256763 38.57536298 -22 40 C-22 40.66 -22 41.32 -22 42 C-21.17886719 42.23074219 -20.35773438 42.46148437 -19.51171875 42.69921875 C-15.25465489 44.27608445 -11.64863929 46.41181928 -7.8125 48.8125 C-6.74612305 49.45155273 -6.74612305 49.45155273 -5.65820312 50.10351562 C-1.71160962 52.55760622 1.25698223 54.51605354 3 59 C3.29296875 62.55078125 3.29296875 62.55078125 3.1875 66.3125 C3.14689453 68.19388672 3.14689453 68.19388672 3.10546875 70.11328125 C3.05326172 71.54220703 3.05326172 71.54220703 3 73 C3.43957031 72.09636719 3.87914062 71.19273438 4.33203125 70.26171875 C6.55485308 65.91498285 9.2220512 62.0070187 12 58 C12.93392578 56.62521484 12.93392578 56.62521484 13.88671875 55.22265625 C23.75895384 41.08344332 23.75895384 41.08344332 31.39453125 39.1328125 C34.59939731 38.62586727 37.76521182 38.2416229 41 38 C41 38.66 41 39.32 41 40 C42.175625 40.3403125 42.175625 40.3403125 43.375 40.6875 C46 42 46 42 47.375 44.4375 C48 47 48 47 47 50 C46.360625 49.67 45.72125 49.34 45.0625 49 C40.08789283 47.37563848 35.69313973 46.94596083 30.734375 48.88671875 C21.67596865 54.16023154 16.54575078 63.89590633 12 73 C10.72254346 74.8532116 9.37132076 76.61202203 7.98828125 78.38671875 C6.73881581 80.11103931 6.73881581 80.11103931 7 83 C5.3125 85.1875 5.3125 85.1875 3 87 C0.35546875 87.11328125 0.35546875 87.11328125 -2 87 C-2.24234375 86.31035156 -2.4846875 85.62070313 -2.734375 84.91015625 C-3.43663364 82.94113106 -4.15517213 80.97786394 -4.88671875 79.01953125 C-5.55790862 77.19907591 -6.19627476 75.36534506 -6.76953125 73.51171875 C-9.32111152 66.23405876 -14.44374019 63.56765135 -21 60 C-22.22974015 59.27180093 -23.45900753 58.54280197 -24.6875 57.8125 C-28.41452954 55.77318195 -32.18690759 53.87309802 -36 52 C-36 51.34 -36 50.68 -36 50 C-36.804375 49.79375 -37.60875 49.5875 -38.4375 49.375 C-43.16531099 47.55023085 -49.63878376 44.72243248 -52 40 C-52.2005521 37.71370606 -52.31299364 35.41923545 -52.375 33.125 C-52.42398437 31.89007813 -52.47296875 30.65515625 -52.5234375 29.3828125 C-52 26 -52 26 -49.98828125 23.8515625 C-46.30345674 21.56841633 -42.60171487 19.35550039 -38.8125 17.25 C-38.08869141 16.83878906 -37.36488281 16.42757812 -36.61914062 16.00390625 C-31.25502232 13 -31.25502232 13 -29 13 C-29 12.34 -29 11.68 -29 11 C-28.0821875 10.55269531 -27.164375 10.10539062 -26.21875 9.64453125 C-24.97879388 9.03461146 -23.73923686 8.42387987 -22.5 7.8125 C-21.85796631 7.49732422 -21.21593262 7.18214844 -20.55444336 6.85742188 C-16.42242652 4.79950113 -12.60757242 2.57692331 -8.94140625 -0.25 C-5.81270926 -1.45867167 -3.24255843 -0.63826557 0 0 Z " fill="#1B90F8" transform="translate(309,40)"/>
<path d="M0 0 C2.91162109 1.33178711 2.91162109 1.33178711 5.7734375 3.02734375 C6.83796143 3.65036377 7.90248535 4.27338379 8.99926758 4.9152832 C10.11325928 5.58261475 11.22725098 6.24994629 12.375 6.9375 C13.53540894 7.62112756 14.69646591 8.30365628 15.8581543 8.98510742 C19.24671443 10.97678606 22.62386996 12.98731693 26 15 C28.54835957 16.51268411 31.09763127 18.02376585 33.64892578 19.53149414 C35.04718974 20.35937622 36.44289402 21.19160372 37.83544922 22.02905273 C41.14030067 23.99877179 44.37680577 25.69565008 48 27 C48 27.99 48 28.98 48 30 C47.15695312 30.40992187 46.31390625 30.81984375 45.4453125 31.2421875 C44.34960938 31.78101563 43.25390625 32.31984375 42.125 32.875 C41.03445313 33.40867188 39.94390625 33.94234375 38.8203125 34.4921875 C35.96117453 35.84535937 35.96117453 35.84535937 34 38 C27.25782551 34.79840876 20.75903609 31.35881318 14.375 27.5 C13.74094238 27.11739014 13.10688477 26.73478027 12.45361328 26.34057617 C9.60200707 24.61006068 6.77339268 22.85476133 3.96484375 21.0546875 C3.08957031 20.50039063 2.21429688 19.94609375 1.3125 19.375 C0.56613281 18.88773438 -0.18023437 18.40046875 -0.94921875 17.8984375 C-3.55381971 16.75737422 -4.32881146 17.10496377 -7 18 C-8.78565392 18.921403 -10.54396775 19.89659967 -12.28125 20.90625 C-13.28800781 21.48503906 -14.29476562 22.06382813 -15.33203125 22.66015625 C-16.37746094 23.26730469 -17.42289062 23.87445313 -18.5 24.5 C-20.57033324 25.70237603 -22.64315406 26.90048166 -24.71875 28.09375 C-26.09450195 28.89329102 -26.09450195 28.89329102 -27.49804688 29.70898438 C-29.70983614 30.85027454 -31.56963135 31.53666656 -34 32 C-34 32.99 -34 33.98 -34 35 C-33.319375 35.268125 -32.63875 35.53625 -31.9375 35.8125 C-28.60289191 37.16053306 -25.30256763 38.57536298 -22 40 C-22 40.66 -22 41.32 -22 42 C-21.17886719 42.23074219 -20.35773438 42.46148437 -19.51171875 42.69921875 C-15.25465489 44.27608445 -11.64863929 46.41181928 -7.8125 48.8125 C-6.74612305 49.45155273 -6.74612305 49.45155273 -5.65820312 50.10351562 C-1.71160962 52.55760622 1.25698223 54.51605354 3 59 C3.29296875 62.55078125 3.29296875 62.55078125 3.1875 66.3125 C3.14689453 68.19388672 3.14689453 68.19388672 3.10546875 70.11328125 C3.05326172 71.54220703 3.05326172 71.54220703 3 73 C3.43957031 72.09636719 3.87914062 71.19273438 4.33203125 70.26171875 C6.55485308 65.91498285 9.2220512 62.0070187 12 58 C12.93392578 56.62521484 12.93392578 56.62521484 13.88671875 55.22265625 C23.75895384 41.08344332 23.75895384 41.08344332 31.39453125 39.1328125 C34.59939731 38.62586727 37.76521182 38.2416229 41 38 C41 38.66 41 39.32 41 40 C42.175625 40.3403125 42.175625 40.3403125 43.375 40.6875 C46 42 46 42 47.375 44.4375 C48 47 48 47 47 50 C46.360625 49.67 45.72125 49.34 45.0625 49 C40.08789283 47.37563848 35.69313973 46.94596083 30.734375 48.88671875 C21.67596865 54.16023154 16.54575078 63.89590633 12 73 C10.72254346 74.8532116 9.37132076 76.61202203 7.98828125 78.38671875 C6.73881581 80.11103931 6.73881581 80.11103931 7 83 C5.3125 85.1875 5.3125 85.1875 3 87 C0.35546875 87.11328125 0.35546875 87.11328125 -2 87 C-2.24234375 86.31035156 -2.4846875 85.62070313 -2.734375 84.91015625 C-3.43663364 82.94113106 -4.15517213 80.97786394 -4.88671875 79.01953125 C-5.55790862 77.19907591 -6.19627476 75.36534506 -6.76953125 73.51171875 C-9.32111152 66.23405876 -14.44374019 63.56765135 -21 60 C-22.22974015 59.27180093 -23.45900753 58.54280197 -24.6875 57.8125 C-28.41452954 55.77318195 -32.18690759 53.87309802 -36 52 C-36 51.34 -36 50.68 -36 50 C-36.804375 49.79375 -37.60875 49.5875 -38.4375 49.375 C-43.16531099 47.55023085 -49.63878376 44.72243248 -52 40 C-52.2005521 37.71370606 -52.31299364 35.41923545 -52.375 33.125 C-52.42398437 31.89007813 -52.47296875 30.65515625 -52.5234375 29.3828125 C-52 26 -52 26 -49.98828125 23.8515625 C-46.30345674 21.56841633 -42.60171487 19.35550039 -38.8125 17.25 C-38.08869141 16.83878906 -37.36488281 16.42757812 -36.61914062 16.00390625 C-31.25502232 13 -31.25502232 13 -29 13 C-29 12.34 -29 11.68 -29 11 C-28.0821875 10.55269531 -27.164375 10.10539062 -26.21875 9.64453125 C-24.97879388 9.03461146 -23.73923686 8.42387987 -22.5 7.8125 C-21.85796631 7.49732422 -21.21593262 7.18214844 -20.55444336 6.85742188 C-16.42242652 4.79950113 -12.60757242 2.57692331 -8.94140625 -0.25 C-5.81270926 -1.45867167 -3.24255843 -0.63826557 0 0 Z M-12.3125 5.375 C-13.34407227 5.91060547 -13.34407227 5.91060547 -14.39648438 6.45703125 C-22.02929045 10.45681539 -29.52867351 14.70796138 -37 19 C-37 19.66 -37 20.32 -37 21 C-37.598125 21.144375 -38.19625 21.28875 -38.8125 21.4375 C-40.56150404 21.8872439 -42.28677023 22.42892341 -44 23 C-44 23.66 -44 24.32 -44 25 C-44.61875 25.12375 -45.2375 25.2475 -45.875 25.375 C-48.19120832 25.87197356 -48.19120832 25.87197356 -50 28 C-50.24315656 30.66949409 -50.24315656 30.66949409 -50.125 33.625 C-50.10695313 34.62789062 -50.08890625 35.63078125 -50.0703125 36.6640625 C-50.04710937 37.43492188 -50.02390625 38.20578125 -50 39 C-49.34 39 -48.68 39 -48 39 C-48 39.66 -48 40.32 -48 41 C-47.51273437 41.268125 -47.02546875 41.53625 -46.5234375 41.8125 C-41.57757373 44.54621379 -36.65739125 47.32299204 -31.75 50.125 C-31.16009277 50.46144531 -30.57018555 50.79789063 -29.96240234 51.14453125 C-27.36267256 52.63135043 -24.79185131 54.13262045 -22.265625 55.7421875 C-19.99474368 57.24269347 -19.99474368 57.24269347 -17 57 C-17 57.66 -17 58.32 -17 59 C-15.24040598 60.29133839 -15.24040598 60.29133839 -13.0625 61.5 C-9.10545906 63.78908189 -9.10545906 63.78908189 -8 66 C-7.34 66 -6.68 66 -6 66 C-5.01 69.3 -4.02 72.6 -3 76 C-2.01 76 -1.02 76 0 76 C0 70.06 0 64.12 0 58 C-0.66 58 -1.32 58 -2 58 C-2.33 57.01 -2.66 56.02 -3 55 C-5.27676621 53.48279098 -5.27676621 53.48279098 -8.0625 52.125 C-13.85588185 49.09681208 -19.32240766 45.7255595 -24.8125 42.1875 C-27.02458697 40.76145407 -27.02458697 40.76145407 -30 41 C-30 40.34 -30 39.68 -30 39 C-31.4540625 38.38125 -31.4540625 38.38125 -32.9375 37.75 C-36 36 -36 36 -36.875 33.8125 C-36.91625 33.214375 -36.9575 32.61625 -37 32 C-35.02 31.01 -33.04 30.02 -31 29 C-31 28.34 -31 27.68 -31 27 C-30.44828125 26.88785156 -29.8965625 26.77570313 -29.328125 26.66015625 C-26.59934789 25.88639227 -24.27227057 24.73182306 -21.75 23.4375 C-20.41195313 22.75494141 -20.41195313 22.75494141 -19.046875 22.05859375 C-18.37140625 21.70925781 -17.6959375 21.35992187 -17 21 C-17 20.34 -17 19.68 -17 19 C-15.68 19 -14.36 19 -13 19 C-13 18.34 -13 17.68 -13 17 C-11.02 16.34 -9.04 15.68 -7 15 C-7 14.34 -7 13.68 -7 13 C-6.46890625 13.20496094 -5.9378125 13.40992188 -5.390625 13.62109375 C-4.68421875 13.89050781 -3.9778125 14.15992188 -3.25 14.4375 C-2.55390625 14.70433594 -1.8578125 14.97117187 -1.140625 15.24609375 C0.89059003 15.96146693 2.9035291 16.51365652 5 17 C5 17.66 5 18.32 5 19 C6.093125 19.66 7.18625 20.32 8.3125 21 C9.23482422 21.556875 9.23482422 21.556875 10.17578125 22.125 C12.11361926 23.21623999 12.11361926 23.21623999 15 23 C15 23.66 15 24.32 15 25 C16.0725 25.66 17.145 26.32 18.25 27 C18.85328125 27.37125 19.4565625 27.7425 20.078125 28.125 C22.25479385 29.27624023 22.25479385 29.27624023 26 29 C26 29.66 26 30.32 26 31 C29.40728075 33.09678815 32.03207421 33.4133256 36 33 C38.40303555 31.82441332 38.40303555 31.82441332 40 30 C40 29.01 40 28.02 40 27 C37.46226869 25.0394328 37.46226869 25.0394328 34.1875 23.1875 C33.60379639 22.83929199 33.02009277 22.49108398 32.41870117 22.13232422 C27.73505086 19.36110627 22.96446199 16.75296837 18.14453125 14.2265625 C16 13 16 13 14 11 C12.68 11 11.36 11 10 11 C9.505 9.515 9.505 9.515 9 8 C7.3523962 7.28752268 5.68236471 6.62599617 4 6 C3.34 5.484375 2.68 4.96875 2 4.4375 C-3.2429718 0.66911402 -7.08698088 2.56007785 -12.3125 5.375 Z " fill="#2872DF" transform="translate(309,40)"/>
<path d="M0 0 C2.31 0.66 4.62 1.32 7 2 C7 2.66 7 3.32 7 4 C7.83015625 4.23460938 8.6603125 4.46921875 9.515625 4.7109375 C13.621188 6.22981171 17.05791698 8.30384761 20.75 10.625 C25.07566694 13.72401718 25.07566694 13.72401718 30 15 C30 15.66 30 16.32 30 17 C31.65 17 33.3 17 35 17 C35 17.99 35 18.98 35 20 C35.5775 20.04125 36.155 20.0825 36.75 20.125 C40.24346437 21.48356948 41.21151674 23.78073014 43 27 C44.18988511 30.51016109 45 33.29705199 45 37 C45.9075 37.268125 46.815 37.53625 47.75 37.8125 C50.74566479 38.90706983 52.54123555 40.04902386 55 42 C58.671627 36.33653195 62.3388255 30.67023125 66 25 C66.38800781 24.39929688 66.77601563 23.79859375 67.17578125 23.1796875 C68.14047438 21.68387118 69.10164395 20.185784 70.0625 18.6875 C70.58972656 17.86636719 71.11695313 17.04523438 71.66015625 16.19921875 C73.02460274 14.08096229 73.02460274 14.08096229 73.859375 11.96484375 C76.88641145 6.75046247 84.12807974 2.34868524 89.75 0.3125 C94.2008341 -0.11546482 96.16826077 0.70095646 100 3 C101 5.0625 101 5.0625 101 7 C100.67 7.66 100.34 8.32 100 9 C97.92578125 9.2734375 97.92578125 9.2734375 95.3125 9.375 C88.57110747 9.95912634 85.04072515 12.72074901 80.5625 17.625 C75.03550403 24.20648863 70.39758425 31.29045081 65.9375 38.625 C57.49436504 52.44103903 57.49436504 52.44103903 53.953125 53.765625 C52 54 52 54 50 53 C48.96484375 50.6015625 48.96484375 50.6015625 47.9375 47.625 C47.59589844 46.64789063 47.25429688 45.67078125 46.90234375 44.6640625 C46.26340405 42.77766911 45.62981934 40.88945801 45 39 C43.43824428 38.30588635 41.86927438 37.62570329 40.27734375 37.00390625 C36.36709602 35.28017783 32.77541879 32.9994878 29.10546875 30.8203125 C26.28747119 29.16850512 23.44308704 27.60161658 20.5625 26.0625 C16.26344291 23.73410558 12.05234783 21.288317 7.875 18.75 C6.77929688 18.08484375 5.68359375 17.4196875 4.5546875 16.734375 C2 15 2 15 1 13 C0.77049681 10.795636 0.58924067 8.58607827 0.4375 6.375 C0.35371094 5.18648438 0.26992188 3.99796875 0.18359375 2.7734375 C0.12300781 1.85820313 0.06242187 0.94296875 0 0 Z " fill="#315FDA" transform="translate(256,89)"/>
<path d="M0 0 C0.80429443 0.01579102 1.60858887 0.03158203 2.43725586 0.04785156 C3.04706299 0.0681543 3.65687012 0.08845703 4.28515625 0.109375 C4.31210635 3.04693619 4.33197099 5.98425055 4.34765625 8.921875 C4.35603516 9.75525391 4.36441406 10.58863281 4.37304688 11.44726562 C4.37626953 12.24970703 4.37949219 13.05214844 4.3828125 13.87890625 C4.38804932 14.61729736 4.39328613 15.35568848 4.39868164 16.11645508 C4.28515625 18.109375 4.28515625 18.109375 3.28515625 21.109375 C0.6328125 22.93359375 0.6328125 22.93359375 -2.65234375 24.796875 C-3.73386719 25.41949219 -4.81539063 26.04210937 -5.9296875 26.68359375 C-8.71484375 28.109375 -8.71484375 28.109375 -10.71484375 28.109375 C-11.20984375 29.594375 -11.20984375 29.594375 -11.71484375 31.109375 C-12.70484375 31.109375 -13.69484375 31.109375 -14.71484375 31.109375 C-16.68199301 32.02374445 -16.68199301 32.02374445 -18.7421875 33.3046875 C-19.52916016 33.77100586 -20.31613281 34.23732422 -21.12695312 34.71777344 C-21.96033203 35.21825195 -22.79371094 35.71873047 -23.65234375 36.234375 C-40.66937619 46.25236263 -40.66937619 46.25236263 -45.71484375 48.109375 C-46.70484375 47.779375 -47.69484375 47.449375 -48.71484375 47.109375 C-46.4957674 44.81871555 -44.32079121 42.59816422 -41.8359375 40.59375 C-34.35857611 34.47966445 -29.03030833 26.87601364 -23.28857422 19.1953125 C-8.64033366 -0.22053723 -8.64033366 -0.22053723 0 0 Z " fill="#2478F6" transform="translate(351.71484375,103.890625)"/>
<path d="M0 0 C7.20107242 2.75785752 13.7879449 6.66295991 20.390625 10.6171875 C21.15149414 11.07158203 21.91236328 11.52597656 22.69628906 11.99414062 C24.2175495 12.90599406 25.73522396 13.82386013 27.24902344 14.74804688 C27.9505957 15.16892578 28.65216797 15.58980469 29.375 16.0234375 C30.31472656 16.59457275 30.31472656 16.59457275 31.2734375 17.17724609 C33.1326088 18.21509066 33.1326088 18.21509066 36 18 C38.5 20.25 38.5 20.25 41 23 C41.556875 23.598125 42.11375 24.19625 42.6875 24.8125 C45.33472101 29.22453501 46 33.91693696 46 39 C42.29627204 38.27360299 39.17949309 36.73984491 35.8125 35.0625 C34.74644531 34.53785156 33.68039062 34.01320312 32.58203125 33.47265625 C30 32 30 32 29 30 C28.01 30 27.02 30 26 30 C26 29.34 26 28.68 26 28 C25.36320312 27.77183594 24.72640625 27.54367188 24.0703125 27.30859375 C19.84377473 25.50720679 15.88734814 23.29408689 11.875 21.0625 C11.06417969 20.61970703 10.25335938 20.17691406 9.41796875 19.72070312 C8.24814453 19.07198242 8.24814453 19.07198242 7.0546875 18.41015625 C6.34812012 18.01965088 5.64155273 17.62914551 4.91357422 17.22680664 C2.95069821 15.96839225 1.47733556 14.80496702 0 13 C-0.29296875 9.86328125 -0.29296875 9.86328125 -0.1875 6.3125 C-0.16042969 5.13300781 -0.13335937 3.95351562 -0.10546875 2.73828125 C-0.07066406 1.83464844 -0.03585937 0.93101563 0 0 Z " fill="#444BD8" transform="translate(257,111)"/>
<path d="M0 0 C2.91162109 1.33178711 2.91162109 1.33178711 5.7734375 3.02734375 C6.83796143 3.65036377 7.90248535 4.27338379 8.99926758 4.9152832 C10.11325928 5.58261475 11.22725098 6.24994629 12.375 6.9375 C13.53540894 7.62112756 14.69646591 8.30365628 15.8581543 8.98510742 C19.24671443 10.97678606 22.62386996 12.98731693 26 15 C28.54835957 16.51268411 31.09763127 18.02376585 33.64892578 19.53149414 C35.04718974 20.35937622 36.44289402 21.19160372 37.83544922 22.02905273 C41.14030067 23.99877179 44.37680577 25.69565008 48 27 C48 27.99 48 28.98 48 30 C47.15695312 30.40992187 46.31390625 30.81984375 45.4453125 31.2421875 C44.34960938 31.78101563 43.25390625 32.31984375 42.125 32.875 C41.03445313 33.40867188 39.94390625 33.94234375 38.8203125 34.4921875 C35.96117453 35.84535937 35.96117453 35.84535937 34 38 C27.25782551 34.79840876 20.75903609 31.35881318 14.375 27.5 C13.74094238 27.11739014 13.10688477 26.73478027 12.45361328 26.34057617 C9.60200707 24.61006068 6.77339268 22.85476133 3.96484375 21.0546875 C3.08957031 20.50039063 2.21429688 19.94609375 1.3125 19.375 C0.19294922 18.64410156 0.19294922 18.64410156 -0.94921875 17.8984375 C-3.54440485 16.76149883 -4.34243033 17.10966791 -7 18 C-8.6409722 18.87129126 -10.25381715 19.7965364 -11.84375 20.7578125 C-12.76027344 21.30050781 -13.67679687 21.84320313 -14.62109375 22.40234375 C-16.54381547 23.55284616 -18.46309099 24.7091271 -20.37890625 25.87109375 C-21.29542969 26.41121094 -22.21195312 26.95132813 -23.15625 27.5078125 C-23.98962891 28.00941895 -24.82300781 28.51102539 -25.68164062 29.02783203 C-28.31745616 30.13312031 -29.37846859 30.01286441 -32 29 C-30.62045621 26.24091241 -28.93513795 25.78517015 -26.1875 24.4375 C-24.87845703 23.78587891 -24.87845703 23.78587891 -23.54296875 23.12109375 C-21.34582247 22.15245937 -19.34273236 21.4860214 -17 21 C-17 20.34 -17 19.68 -17 19 C-15.68 19 -14.36 19 -13 19 C-13 18.34 -13 17.68 -13 17 C-11.02 16.34 -9.04 15.68 -7 15 C-7 14.34 -7 13.68 -7 13 C-2.61110675 13.66498383 0.9811485 15.18757677 5 17 C5 17.66 5 18.32 5 19 C5.53625 19.103125 6.0725 19.20625 6.625 19.3125 C9.62502044 20.18092697 12.2379535 21.55620296 15 23 C15 23.66 15 24.32 15 25 C15.515625 25.103125 16.03125 25.20625 16.5625 25.3125 C19.86026435 26.24263866 22.86633332 27.61395512 26 29 C26 29.66 26 30.32 26 31 C27.60226955 31.22245393 29.20696767 31.42746669 30.8125 31.625 C31.70582031 31.74101563 32.59914063 31.85703125 33.51953125 31.9765625 C36.25690391 32.23500743 36.25690391 32.23500743 39 30 C39.495 28.515 39.495 28.515 40 27 C39.26934326 26.72220703 38.53868652 26.44441406 37.78588867 26.15820312 C35.19390597 25.08061431 32.85327173 23.87197744 30.42578125 22.46875 C29.59369141 21.98792969 28.76160156 21.50710937 27.90429688 21.01171875 C27.04900391 20.51285156 26.19371094 20.01398437 25.3125 19.5 C24.44560547 19.00113281 23.57871094 18.50226562 22.68554688 17.98828125 C16.25514552 14.25514552 16.25514552 14.25514552 14 12 C13.319375 11.835 12.63875 11.67 11.9375 11.5 C11.298125 11.335 10.65875 11.17 10 11 C9.505 10.01 9.505 10.01 9 9 C8.236875 8.87625 7.47375 8.7525 6.6875 8.625 C3.37098095 7.8537165 2.36842751 6.36842751 0 4 C-3.61506158 2.56189156 -5.00214228 3.00086147 -8.671875 4.4765625 C-10.03872843 5.17832952 -11.3978957 5.89521975 -12.75 6.625 C-13.81081787 7.17498657 -13.81081787 7.17498657 -14.89306641 7.73608398 C-19.4680435 10.12318812 -23.98121883 12.61606466 -28.3984375 15.28515625 C-28.92695313 15.52105469 -29.45546875 15.75695312 -30 16 C-30.66 15.67 -31.32 15.34 -32 15 C-31.67 14.34 -31.34 13.68 -31 13 C-30.34 13 -29.68 13 -29 13 C-29 12.34 -29 11.68 -29 11 C-28.0821875 10.55269531 -27.164375 10.10539062 -26.21875 9.64453125 C-24.97879388 9.03461146 -23.73923686 8.42387987 -22.5 7.8125 C-21.53694946 7.33973633 -21.53694946 7.33973633 -20.55444336 6.85742188 C-16.42242652 4.79950113 -12.60757242 2.57692331 -8.94140625 -0.25 C-5.81270926 -1.45867167 -3.24255843 -0.63826557 0 0 Z " fill="#259FE3" transform="translate(309,40)"/>
<path d="M0 0 C0.80429443 0.01579102 1.60858887 0.03158203 2.43725586 0.04785156 C3.04706299 0.0681543 3.65687012 0.08845703 4.28515625 0.109375 C4.31210635 3.04693619 4.33197099 5.98425055 4.34765625 8.921875 C4.35603516 9.75525391 4.36441406 10.58863281 4.37304688 11.44726562 C4.37626953 12.24970703 4.37949219 13.05214844 4.3828125 13.87890625 C4.38804932 14.61729736 4.39328613 15.35568848 4.39868164 16.11645508 C4.28515625 18.109375 4.28515625 18.109375 3.28515625 21.109375 C0.6328125 22.93359375 0.6328125 22.93359375 -2.65234375 24.796875 C-3.73386719 25.41949219 -4.81539063 26.04210937 -5.9296875 26.68359375 C-8.71484375 28.109375 -8.71484375 28.109375 -10.71484375 28.109375 C-11.20984375 29.594375 -11.20984375 29.594375 -11.71484375 31.109375 C-12.70484375 31.109375 -13.69484375 31.109375 -14.71484375 31.109375 C-16.68199301 32.02374445 -16.68199301 32.02374445 -18.7421875 33.3046875 C-19.52916016 33.77100586 -20.31613281 34.23732422 -21.12695312 34.71777344 C-21.96033203 35.21825195 -22.79371094 35.71873047 -23.65234375 36.234375 C-40.66937619 46.25236263 -40.66937619 46.25236263 -45.71484375 48.109375 C-46.70484375 47.779375 -47.69484375 47.449375 -48.71484375 47.109375 C-46.4957674 44.81871555 -44.32079121 42.59816422 -41.8359375 40.59375 C-34.35857611 34.47966445 -29.03030833 26.87601364 -23.28857422 19.1953125 C-8.64033366 -0.22053723 -8.64033366 -0.22053723 0 0 Z M-18.26953125 16.1171875 C-19.81678976 18.0629869 -19.81678976 18.0629869 -20.58984375 20.45703125 C-22.07478258 23.95798079 -24.3744868 26.58015404 -26.83984375 29.421875 C-27.54173828 30.24655273 -27.54173828 30.24655273 -28.2578125 31.08789062 C-29.40436858 32.43333909 -30.55881826 33.772054 -31.71484375 35.109375 C-30.72484375 35.439375 -29.73484375 35.769375 -28.71484375 36.109375 C-27.72484375 35.614375 -27.72484375 35.614375 -26.71484375 35.109375 C-26.71484375 34.449375 -26.71484375 33.789375 -26.71484375 33.109375 C-25.66296875 32.985625 -25.66296875 32.985625 -24.58984375 32.859375 C-21.06203227 31.93907635 -18.71384821 30.15125038 -15.71484375 28.109375 C-13.33984375 27.359375 -13.33984375 27.359375 -11.71484375 27.109375 C-11.71484375 26.449375 -11.71484375 25.789375 -11.71484375 25.109375 C-11.14121094 24.985625 -10.56757813 24.861875 -9.9765625 24.734375 C-7.64122196 24.08903046 -5.68277402 23.20933191 -3.52734375 22.109375 C-2.83253906 21.75875 -2.13773437 21.408125 -1.421875 21.046875 C0.26223388 20.22543099 0.26223388 20.22543099 1.28515625 19.109375 C1.35835246 16.41282646 1.37758162 13.74246042 1.34765625 11.046875 C1.34314453 10.28826172 1.33863281 9.52964844 1.33398438 8.74804688 C1.32216305 6.86845629 1.30422703 4.98890601 1.28515625 3.109375 C-7.86822827 2.48616584 -12.57923009 9.73875689 -18.26953125 16.1171875 Z " fill="#2A81DA" transform="translate(351.71484375,103.890625)"/>
<path d="M0 0 C1.5 2.5 1.5 2.5 2 5 C1.67 5.66 1.34 6.32 1 7 C-1.07421875 7.2734375 -1.07421875 7.2734375 -3.6875 7.375 C-11.41348708 8.04443922 -15.36903021 11.99862661 -20.19921875 17.70703125 C-22.76083508 20.96878567 -25.10941267 24.3591025 -27.421875 27.80078125 C-28.83696403 29.77279888 -30.13171147 31.45242585 -32 33 C-34.1875 32.6875 -34.1875 32.6875 -36 32 C-36 27.22367784 -34.79196318 25.60493506 -32.25 21.625 C-31.20585937 19.97371094 -31.20585937 19.97371094 -30.140625 18.2890625 C-24.61286079 9.79567296 -19.02111966 1.69956445 -8.98046875 -1.6796875 C-5.58979204 -2.22808097 -3.12704885 -1.27398286 0 0 Z " fill="#2381EE" transform="translate(355,91)"/>
<path d="M0 0 C0.33 0.66 0.66 1.32 1 2 C1.804375 2.268125 2.60875 2.53625 3.4375 2.8125 C6 4 6 4 7.375 6.4375 C8 9 8 9 7 12 C6.360625 11.67 5.72125 11.34 5.0625 11 C0.08789283 9.37563848 -4.30686027 8.94596083 -9.265625 10.88671875 C-15.6208457 14.58652381 -19.18128347 20.02068745 -23.0546875 26.07421875 C-24.58884805 28.38162086 -25.94855593 30.1743438 -28 32 C-28 31.34 -28 30.68 -28 30 C-28.66 30 -29.32 30 -30 30 C-29.835 29.236875 -29.67 28.47375 -29.5 27.6875 C-28.90854604 24.96403764 -28.90854604 24.96403764 -29 22 C-24.49384289 13.39858157 -18.47322642 4.41036151 -9 1 C-6.00616175 0.50266832 -3.02771702 0.19511954 0 0 Z " fill="#2793DA" transform="translate(349,78)"/>
<path d="M0 0 C4.33471959 1.16297355 7.39407221 2.90492916 10.96875 5.5859375 C14.15596539 7.80472975 17.58100535 9.54985148 21 11.3828125 C24.25109797 13.1353575 27.47654138 14.92490323 30.6875 16.75 C31.70199219 17.32234375 32.71648437 17.8946875 33.76171875 18.484375 C34.50035156 18.98453125 35.23898437 19.4846875 36 20 C36 20.66 36 21.32 36 22 C36.99 22 37.98 22 39 22 C39.495 25.96 39.495 25.96 40 30 C39.01 30 38.02 30 37 30 C37 29.34 37 28.68 37 28 C36.2575 27.896875 35.515 27.79375 34.75 27.6875 C31.8026481 26.95066203 30.21616926 26.05200858 28 24 C28 23.34 28 22.68 28 22 C27.27425781 22.0515625 26.54851562 22.103125 25.80078125 22.15625 C22.58408614 21.976797 20.93384423 21.13960849 18.1875 19.5 C17.00220703 18.80390625 17.00220703 18.80390625 15.79296875 18.09375 C15.20128906 17.7328125 14.60960937 17.371875 14 17 C14 16.34 14 15.68 14 15 C12.68 14.67 11.36 14.34 10 14 C10 13.34 10 12.68 10 12 C8.68 12 7.36 12 6 12 C6 11.34 6 10.68 6 10 C5.38125 9.87625 4.7625 9.7525 4.125 9.625 C2 9 2 9 0 7 C-0.125 3.375 -0.125 3.375 0 0 Z " fill="#4845F0" transform="translate(259,115)"/>
<path d="M0 0 C3.0831351 1.19899698 6.06279492 2.47700477 9 4 C9 4.66 9 5.32 9 6 C9.99 6 10.98 6 12 6 C12 6.66 12 7.32 12 8 C12.99 8 13.98 8 15 8 C15 8.66 15 9.32 15 10 C15.78375 10.04125 16.5675 10.0825 17.375 10.125 C24.43414382 11.82893127 33.26061515 16.82569928 37.3125 23 C38 25 38 25 38 29 C37.236875 28.690625 36.47375 28.38125 35.6875 28.0625 C33.81210323 27.32106407 31.91315348 26.63771783 30 26 C30 25.34 30 24.68 30 24 C28.68 24 27.36 24 26 24 C26 23.34 26 22.68 26 22 C25.13246094 21.73960938 24.26492188 21.47921875 23.37109375 21.2109375 C19.96993523 19.98920037 17.15449118 18.48588299 14.0625 16.625 C13.02609375 16.00625 11.9896875 15.3875 10.921875 14.75 C9.47554688 13.88375 9.47554688 13.88375 8 13 C6.60672354 12.20384202 5.21143263 11.41117702 3.8125 10.625 C1 9 1 9 0 8 C-0.14115161 5.32941149 -0.04247107 2.67567762 0 0 Z " fill="#3062F3" transform="translate(259,93)"/>
<path d="M0 0 C0.66 0.66 1.32 1.32 2 2 C2.66 1.67 3.32 1.34 4 1 C2.90852431 8.3641733 -1.86403525 15.69283643 -7 21 C-9.125 21.875 -9.125 21.875 -11 22 C-13.92588768 20.53705616 -14.02201919 18.60481841 -15.0625 15.5625 C-16.36587668 11.7115274 -16.36587668 11.7115274 -18 8 C-17.67 7.34 -17.34 6.68 -17 6 C-13.13304097 6.53707764 -11.02939501 7.58554629 -8 10 C-7.38511719 9.04287109 -7.38511719 9.04287109 -6.7578125 8.06640625 C-5.94957031 6.82697266 -5.94957031 6.82697266 -5.125 5.5625 C-4.32449219 4.32693359 -4.32449219 4.32693359 -3.5078125 3.06640625 C-2 1 -2 1 0 0 Z " fill="#4B3FCE" transform="translate(319,121)"/>
<path d="M0 0 C0.33 0.66 0.66 1.32 1 2 C0.0625 4.125 0.0625 4.125 -1 6 C-0.34 6 0.32 6 1 6 C1.1875 8.8125 1.1875 8.8125 1 12 C-0.375 13.5625 -0.375 13.5625 -2 15 C-2.309375 15.78375 -2.61875 16.5675 -2.9375 17.375 C-4.20827153 20.51455318 -5.60301677 22.60301677 -8 25 C-10.75 25.3125 -10.75 25.3125 -13 25 C-13.53229326 23.73392393 -14.05044544 22.46189588 -14.5625 21.1875 C-14.85253906 20.47980469 -15.14257812 19.77210937 -15.44140625 19.04296875 C-16 17 -16 17 -15 14 C-14.4225 13.87625 -13.845 13.7525 -13.25 13.625 C-9.85269113 12.68130309 -8.2618226 10.62860464 -6 8 C-5.13880866 5.82653432 -5.13880866 5.82653432 -5 4 C-4.0409375 3.8453125 -4.0409375 3.8453125 -3.0625 3.6875 C-2.381875 3.460625 -1.70125 3.23375 -1 3 C-0.67 2.01 -0.34 1.02 0 0 Z " fill="#2F66DA" transform="translate(320,102)"/>
<path d="M0 0 C1.32 0.33 2.64 0.66 4 1 C1.36 4.3 -1.28 7.6 -4 11 C-2.68 11 -1.36 11 0 11 C0 10.34 0 9.68 0 9 C3.465 8.505 3.465 8.505 7 8 C7 8.66 7 9.32 7 10 C-8.2122627 18.66306275 -8.2122627 18.66306275 -14.8125 22.125 C-15.56144531 22.51945312 -16.31039063 22.91390625 -17.08203125 23.3203125 C-19 24 -19 24 -22 23 C-19.02068208 19.92457505 -15.94612551 17.09191587 -12.6875 14.3125 C-7.80665111 10.02947321 -3.89357526 5.17728808 0 0 Z " fill="#4150E0" transform="translate(325,128)"/>
<path d="M0 0 C5.75 1.875 5.75 1.875 8 3 C8 3.66 8 4.32 8 5 C9.32 5 10.64 5 12 5 C12 5.66 12 6.32 12 7 C12.86625 7.185625 12.86625 7.185625 13.75 7.375 C16 8 16 8 20 10 C18.515 5.545 18.515 5.545 17 1 C17.99 1 18.98 1 20 1 C24.59225513 9.261959 24.59225513 9.261959 24 14 C24.66 14.33 25.32 14.66 26 15 C25.01 15.495 25.01 15.495 24 16 C17.19401168 13.63269971 11.16764979 9.66725123 5 6 C2.67227286 4.65647964 0.33678659 3.32771965 -2 2 C-1.34 1.34 -0.68 0.68 0 0 Z " fill="#395ADD" transform="translate(277,112)"/>
<path d="M0 0 C3.82206385 0.80851351 6.40447267 1.45275867 9.3125 4.125 C12.14278902 8.94697388 13 13.44050555 13 19 C9.29627204 18.27360299 6.17949309 16.73984491 2.8125 15.0625 C1.74644531 14.53785156 0.68039062 14.01320312 -0.41796875 13.47265625 C-3 12 -3 12 -4 10 C-4.99 10 -5.98 10 -7 10 C-6.67 8.68 -6.34 7.36 -6 6 C-5.01 6 -4.02 6 -3 6 C-3 6.66 -3 7.32 -3 8 C-1.02 8.66 0.96 9.32 3 10 C3 10.66 3 11.32 3 12 C3.99 12 4.98 12 6 12 C6 12.66 6 13.32 6 14 C6.99 14 7.98 14 9 14 C8.67 11.36 8.34 8.72 8 6 C7.01 6 6.02 6 5 6 C5 5.34 5 4.68 5 4 C4.360625 3.71125 3.72125 3.4225 3.0625 3.125 C1 2 1 2 0 0 Z " fill="#4D42D8" transform="translate(290,131)"/>
<path d="M0 0 C0 3.10551666 -0.5393715 4.35261084 -2 7 C-0.35 5.68 1.3 4.36 3 3 C3 7.53412131 2.27839149 8.50605889 -0.3125 12.0625 C-0.92738281 12.91972656 -1.54226563 13.77695313 -2.17578125 14.66015625 C-5.11278793 18.42732327 -5.11278793 18.42732327 -7 20 C-9.1875 19.6875 -9.1875 19.6875 -11 19 C-11 14.41049604 -9.55871766 12.09585993 -7.1875 8.375 C-6.83107422 7.78976563 -6.47464844 7.20453125 -6.10742188 6.6015625 C-4.26392325 3.6519647 -2.93673778 1.95782519 0 0 Z " fill="#365FE4" transform="translate(330,104)"/>
<path d="M0 0 C1.5 2.5 1.5 2.5 2 5 C1.67 5.66 1.34 6.32 1 7 C-1.14453125 7.34375 -1.14453125 7.34375 -3.8125 7.5 C-6.64347812 7.66726606 -8.60055404 7.79553041 -11.13671875 9.09375 C-13 10 -13 10 -16 9 C-13.65122581 6.49464087 -11.9088213 5.09435091 -8.44140625 4.734375 C-5.95036325 4.74850858 -3.48475972 4.82630806 -1 5 C-2.96251178 2.84812304 -3.69199857 2.06600031 -6.625 1.4375 C-13.72608975 2.62101496 -18.81407921 7.36510663 -23 13 C-23.99 13.33 -24.98 13.66 -26 14 C-24.73540728 8.85340173 -23.08004495 6.75500388 -18.75 3.75 C-17.81671875 3.08484375 -16.8834375 2.4196875 -15.921875 1.734375 C-10.15805441 -1.68693027 -6.30639794 -2.78936832 0 0 Z " fill="#2690D5" transform="translate(355,91)"/>
<path d="M0 0 C2.265625 1.03125 2.265625 1.03125 4 2 C4 2.99 4 3.98 4 5 C-2.93 4.505 -2.93 4.505 -10 4 C-10.33 4.99 -10.66 5.98 -11 7 C-11.9075 7.598125 -12.815 8.19625 -13.75 8.8125 C-17.3584411 11.24125843 -19.36142936 13.58537918 -22 17 C-22.66 16.34 -23.32 15.68 -24 15 C-17.85672972 6.36102616 -11.67926569 -2.28316472 0 0 Z " fill="#1D9DF0" transform="translate(349,81)"/>
<path d="M0 0 C0 3.10551666 -0.5393715 4.35261084 -2 7 C-0.02 6.01 1.96 5.02 4 4 C2.31029911 7.66398299 0.12699789 10.90832572 -2.125 14.25 C-2.84945313 15.32765625 -3.57390625 16.4053125 -4.3203125 17.515625 C-5.15175781 18.74539062 -5.15175781 18.74539062 -6 20 C-6.33 19.34 -6.66 18.68 -7 18 C-7.66 18 -8.32 18 -9 18 C-8.835 17.236875 -8.67 16.47375 -8.5 15.6875 C-7.90854604 12.96403764 -7.90854604 12.96403764 -8 10 C-6.7578125 7.7734375 -6.7578125 7.7734375 -5.125 5.375 C-4.59132813 4.57835938 -4.05765625 3.78171875 -3.5078125 2.9609375 C-2 1 -2 1 0 0 Z " fill="#277DDF" transform="translate(328,90)"/>
<path d="M0 0 C3.34373475 0.55728913 6.03312999 1.35173889 9 3 C9 3.66 9 4.32 9 5 C9.515625 5.103125 10.03125 5.20625 10.5625 5.3125 C13.86026435 6.24263866 16.86633332 7.61395512 20 9 C20 9.66 20 10.32 20 11 C21.60397277 11.16852247 23.2081869 11.33474886 24.8125 11.5 C25.70582031 11.5928125 26.59914063 11.685625 27.51953125 11.78125 C30.08305099 12.04392401 30.08305099 12.04392401 33 12 C30.40840562 14.59159438 28.58045135 14.56157739 25 15 C21.86425775 15 21.00362455 14.64309235 18.3828125 13.13671875 C17.34833984 12.54793945 17.34833984 12.54793945 16.29296875 11.94726562 C15.57753906 11.53154297 14.86210937 11.11582031 14.125 10.6875 C13.41730469 10.28337891 12.70960938 9.87925781 11.98046875 9.46289062 C10.60363107 8.67447799 9.23012069 7.88022023 7.86035156 7.07958984 C6.27326456 6.15857951 4.66584214 5.2727601 3.0546875 4.39453125 C1 3 1 3 0 0 Z " fill="#28A9EC" transform="translate(315,60)"/>
<path d="M0 0 C0.99 0.33 1.98 0.66 3 1 C2.01 2.485 2.01 2.485 1 4 C2.32 3.67 3.64 3.34 5 3 C3.78747132 6.63758605 2.39227469 7.12831024 -0.91796875 8.80078125 C-1.56378906 9.11402344 -2.20960938 9.42726562 -2.875 9.75 C-3.51308594 10.07871094 -4.15117187 10.40742188 -4.80859375 10.74609375 C-9.61997768 13.12667411 -9.61997768 13.12667411 -13 12 C-10.04276668 8.95035313 -7.00041058 6.00245366 -3.875 3.125 C-3.21242188 2.50882813 -2.54984375 1.89265625 -1.8671875 1.2578125 C-1.25101562 0.84273437 -0.63484375 0.42765625 0 0 Z " fill="#4846D2" transform="translate(316,139)"/>
<path d="M0 0 C0.66 0.66 1.32 1.32 2 2 C2.66 1.67 3.32 1.34 4 1 C3.42365861 5.75481646 1.44931479 8.97048212 -1 13 C-1.33 12.34 -1.66 11.68 -2 11 C-1.67 10.34 -1.34 9.68 -1 9 C-4.00259517 8.66781808 -4.00259517 8.66781808 -5.6875 10.5 C-6.120625 10.995 -6.55375 11.49 -7 12 C-6.4685789 7.48292068 -4.70984317 4.61312423 -2 1 C-1.34 0.67 -0.68 0.34 0 0 Z " fill="#424AD8" transform="translate(319,121)"/>
<path d="M0 0 C0.97983761 3.04838368 1.21704816 5.00418914 0 8 C-1.75 10.25 -1.75 10.25 -4 12 C-6.75 12.25 -6.75 12.25 -9 12 C-9.55827609 10.73637508 -10.09612097 9.4637081 -10.625 8.1875 C-10.92664063 7.47980469 -11.22828125 6.77210937 -11.5390625 6.04296875 C-11.69117188 5.36878906 -11.84328125 4.69460937 -12 4 C-11.34 3.01 -10.68 2.02 -10 1 C-9.67 2.98 -9.34 4.96 -9 7 C-7.68 7 -6.36 7 -5 7 C-4.67 6.34 -4.34 5.68 -4 5 C-3.34 5 -2.68 5 -2 5 C-1.34 3.35 -0.68 1.7 0 0 Z " fill="#3754D6" transform="translate(316,115)"/>
<path d="M0 0 C0.66 0.33 1.32 0.66 2 1 C-1.49095793 4.9753055 -5.56074985 7.27725909 -10.125 9.8125 C-11.21748047 10.44188477 -11.21748047 10.44188477 -12.33203125 11.08398438 C-14.18505269 12.12352598 -16.08964394 13.07001348 -18 14 C-18.66 13.67 -19.32 13.34 -20 13 C-19.67 12.34 -19.34 11.68 -19 11 C-18.34 11 -17.68 11 -17 11 C-17 10.34 -17 9.68 -17 9 C-16.02417969 8.51789062 -15.04835938 8.03578125 -14.04296875 7.5390625 C-12.75775951 6.90114842 -11.47260618 6.26312169 -10.1875 5.625 C-9.54490234 5.30789062 -8.90230469 4.99078125 -8.24023438 4.6640625 C-5.36805539 3.23541389 -2.6732179 1.78214527 0 0 Z " fill="#278DDE" transform="translate(297,42)"/>
<path d="M0 0 C0 3.10551666 -0.5393715 4.35261084 -2 7 C-0.35 5.68 1.3 4.36 3 3 C3 7 3 7 0.5 9.75 C-0.325 10.4925 -1.15 11.235 -2 12 C-4.475 11.01 -4.475 11.01 -7 10 C-5.6062718 5.56541027 -3.39417765 3.12621626 0 0 Z " fill="#2C70E3" transform="translate(330,104)"/>
<path d="M0 0 C0.99 0.66 1.98 1.32 3 2 C3 2.66 3 3.32 3 4 C2.31292969 4.04898438 1.62585938 4.09796875 0.91796875 4.1484375 C0.01691406 4.22320312 -0.88414062 4.29796875 -1.8125 4.375 C-2.70582031 4.44460937 -3.59914063 4.51421875 -4.51953125 4.5859375 C-7.24398499 4.86645036 -7.24398499 4.86645036 -10 7 C-10.99 7 -11.98 7 -13 7 C-10.70953698 0.96150658 -6.16661393 -0.67028412 0 0 Z " fill="#1B9BF0" transform="translate(351,92)"/>
<path d="M0 0 C0.66 0.66 1.32 1.32 2 2 C0.7260411 4.03833424 -0.61061923 6.03852126 -2 8 C-2.66 8 -3.32 8 -4 8 C-4 8.99 -4 9.98 -4 11 C-4.99 11 -5.98 11 -7 11 C-8.25664978 8.09399739 -9 6.20395416 -9 3 C-7.0085944 2.61866701 -5.00720923 2.28674418 -3 2 C-2.67 2.33 -2.34 2.66 -2 3 C-1.34 2.01 -0.68 1.02 0 0 Z " fill="#513EE6" transform="translate(315,129)"/>
<path d="M0 0 C-0.33 0.99 -0.66 1.98 -1 3 C-2.33333333 3.33333333 -3.66666667 3.66666667 -5 4 C-5.33 4.99 -5.66 5.98 -6 7 C-6.99 7 -7.98 7 -9 7 C-10.68236471 7.62599617 -12.3523962 8.28752268 -14 9 C-14.66 8.34 -15.32 7.68 -16 7 C-15.01 6.67 -14.02 6.34 -13 6 C-12.67 5.34 -12.34 4.68 -12 4 C-8.9375 3.375 -8.9375 3.375 -6 3 C-6 2.34 -6 1.68 -6 1 C-3 0 -3 0 0 0 Z " fill="#316CE4" transform="translate(346,128)"/>
<path d="M0 0 C1.11375 0.556875 1.11375 0.556875 2.25 1.125 C1.92 2.445 1.59 3.765 1.25 5.125 C0.59 5.125 -0.07 5.125 -0.75 5.125 C-1.41 6.445 -2.07 7.765 -2.75 9.125 C-3.08 8.465 -3.41 7.805 -3.75 7.125 C-4.41 7.125 -5.07 7.125 -5.75 7.125 C-6.08 5.145 -6.41 3.165 -6.75 1.125 C-4.02098495 -0.69434337 -3.21400584 -1.02263822 0 0 Z " fill="#335BEE" transform="translate(312.75,114.875)"/>
<path d="M0 0 C1.32 0.66 2.64 1.32 4 2 C2.68 2.33 1.36 2.66 0 3 C0 3.99 0 4.98 0 6 C0.78375 6.28875 1.5675 6.5775 2.375 6.875 C5 8 5 8 7 10 C6.67 10.66 6.34 11.32 6 12 C5.34 12 4.68 12 4 12 C4 11.34 4 10.68 4 10 C3.05125 9.773125 2.1025 9.54625 1.125 9.3125 C-2 8 -2 8 -3.375 5.375 C-3.684375 4.199375 -3.684375 4.199375 -4 3 C-2.68 2.01 -1.36 1.02 0 0 Z " fill="#2479E4" transform="translate(275,69)"/>
<path d="M0 0 C1.98 0 3.96 0 6 0 C6.33 6.27 6.66 12.54 7 19 C4.69 20.32 2.38 21.64 0 23 C-2.4375 22.25 -2.4375 22.25 -4 21 C-3.43410156 20.896875 -2.86820312 20.79375 -2.28515625 20.6875 C0.52546537 19.81813373 1.95661132 19.16003031 4 17 C5.05499377 11.6430368 5.10131582 6.44572511 5 1 C3.35 1 1.7 1 0 1 C0 0.67 0 0.34 0 0 Z " fill="#2982E7" transform="translate(348,106)"/>
<path d="M0 0 C0 0.99 0 1.98 0 3 C-4.95 3 -9.9 3 -15 3 C-14 0 -14 0 -11.875 -1.25 C-7.71830615 -2.33435492 -3.86104573 -1.93052287 0 0 Z " fill="#21A7EB" transform="translate(353,83)"/>
<path d="M0 0 C0.58203125 1.91015625 0.58203125 1.91015625 1 4 C-0.3125 5.4375 -0.3125 5.4375 -2 7 C-2.433125 8.299375 -2.433125 8.299375 -2.875 9.625 C-3.431875 10.800625 -3.431875 10.800625 -4 12 C-6.625 12.8125 -6.625 12.8125 -9 13 C-7.50923566 9.7173068 -5.61379679 7.06922559 -3.375 4.25 C-2.74335938 3.45078125 -2.11171875 2.6515625 -1.4609375 1.828125 C-0.97882813 1.22484375 -0.49671875 0.6215625 0 0 Z " fill="#2F6BDC" transform="translate(335,115)"/>
<path d="M0 0 C1.0828125 0.37125 1.0828125 0.37125 2.1875 0.75 C1.8575 1.74 1.5275 2.73 1.1875 3.75 C-0.87890625 4.69921875 -0.87890625 4.69921875 -3.375 5.4375 C-4.20128906 5.68886719 -5.02757812 5.94023437 -5.87890625 6.19921875 C-6.51699219 6.38097656 -7.15507812 6.56273437 -7.8125 6.75 C-7.8125 3.75 -7.8125 3.75 -5.625 1.5 C-2.8125 -0.25 -2.8125 -0.25 0 0 Z " fill="#4A45BF" transform="translate(311.8125,145.25)"/>
<path d="M0 0 C0.66 0.33 1.32 0.66 2 1 C1.278125 1.70125 0.55625 2.4025 -0.1875 3.125 C-2.14939608 5.07022274 -3.90664273 7.08769025 -5.625 9.25 C-8 12 -8 12 -11 13 C-9.97065637 6.97098731 -6.57790087 4.73026846 -1.8984375 1.3203125 C-1.27195312 0.88460937 -0.64546875 0.44890625 0 0 Z " fill="#257CD7" transform="translate(340,92)"/>
<path d="M0 0 C0 0.66 0 1.32 0 2 C-2.046875 3.54296875 -2.046875 3.54296875 -4.75 5.1875 C-5.63171875 5.73792969 -6.5134375 6.28835937 -7.421875 6.85546875 C-10 8 -10 8 -12.328125 7.67578125 C-12.87984375 7.45277344 -13.4315625 7.22976562 -14 7 C-12.61342957 4.22685913 -10.8798864 3.74046543 -8.125 2.375 C-6.79855469 1.70597656 -6.79855469 1.70597656 -5.4453125 1.0234375 C-3 0 -3 0 0 0 Z " fill="#288BE7" transform="translate(291,62)"/>
<path d="M0 0 C1.32 0.33 2.64 0.66 4 1 C1.03 4.96 1.03 4.96 -2 9 C-2.66 7.68 -3.32 6.36 -4 5 C-2.68 3.35 -1.36 1.7 0 0 Z " fill="#385ADE" transform="translate(325,128)"/>
<path d="M0 0 C2.375 0.3125 2.375 0.3125 5 1 C5.66 1.99 6.32 2.98 7 4 C8.32 4 9.64 4 11 4 C11 4.66 11 5.32 11 6 C11.66 6.33 12.32 6.66 13 7 C12.01 7.495 12.01 7.495 11 8 C6.36647119 6.36968431 3.2066597 4.84799164 0 1 C0 0.67 0 0.34 0 0 Z " fill="#3753D1" transform="translate(290,120)"/>
<path d="M0 0 C2.31 0.66 4.62 1.32 7 2 C6.67 3.32 6.34 4.64 6 6 C5.01 5.34 4.02 4.68 3 4 C3 6.64 3 9.28 3 12 C2.67 12 2.34 12 2 12 C1.34 8.04 0.68 4.08 0 0 Z " fill="#3567D0" transform="translate(256,89)"/>
<path d="M0 0 C0.99 0 1.98 0 3 0 C3.33 0.99 3.66 1.98 4 3 C2.5625 5.6875 2.5625 5.6875 1 8 C0.67 7.34 0.34 6.68 0 6 C-0.66 6 -1.32 6 -2 6 C-1.34 4.02 -0.68 2.04 0 0 Z " fill="#2C73E3" transform="translate(321,102)"/>
<path d="M0 0 C0 4.05345102 -1.58160112 5.8215329 -4 9 C-4.99 9.33 -5.98 9.66 -7 10 C-5.6062718 5.56541027 -3.39417765 3.12621626 0 0 Z " fill="#2C6CD6" transform="translate(330,104)"/>
<path d="M0 0 C2.25450812 0.27025649 4.4469848 0.6215213 6.6640625 1.109375 C6.6640625 1.439375 6.6640625 1.769375 6.6640625 2.109375 C-2.74596028 4.22099231 -2.74596028 4.22099231 -7.3359375 5.109375 C-3.60020811 0.16857162 -3.60020811 0.16857162 0 0 Z " fill="#238CDE" transform="translate(346.3359375,95.890625)"/>
<path d="M0 0 C0 0.66 0 1.32 0 2 C-3.3 2.66 -6.6 3.32 -10 4 C-9 1 -9 1 -6.6875 -0.25 C-3.90126985 -1.0275526 -2.66561622 -0.98726527 0 0 Z " fill="#19A8F5" transform="translate(348,82)"/>
<path d="M0 0 C0.99 0.33 1.98 0.66 3 1 C-1.625 5.875 -1.625 5.875 -5 7 C-3.75023244 3.34683329 -3.32901247 2.21934164 0 0 Z " fill="#267EE1" transform="translate(338,101)"/>
<path d="M0 0 C0.33 1.32 0.66 2.64 1 4 C-1.4375 6.75 -1.4375 6.75 -4 9 C-4.33 8.34 -4.66 7.68 -5 7 C-3.35 4.69 -1.7 2.38 0 0 Z " fill="#218DEE" transform="translate(330,89)"/>
<path d="M0 0 C0 3.69418201 -1.28179295 5.77836178 -3 9 C-3.99 9 -4.98 9 -6 9 C-4.68775452 5.06326356 -3.08089673 2.77280706 0 0 Z " fill="#355DD6" transform="translate(324,113)"/>
<path d="M0 0 C2.475 0.99 2.475 0.99 5 2 C4.67 3.32 4.34 4.64 4 6 C1.525 5.01 1.525 5.01 -1 4 C-0.67 2.68 -0.34 1.36 0 0 Z " fill="#3762E8" transform="translate(310,114)"/>
<path d="M0 0 C0.99 0.99 1.98 1.98 3 3 C2.67 3.66 2.34 4.32 2 5 C-1.3 4.67 -4.6 4.34 -8 4 C-8 3.67 -8 3.34 -8 3 C-5.36 3 -2.72 3 0 3 C0 2.01 0 1.02 0 0 Z " fill="#2989C9" transform="translate(354,93)"/>
<path d="M0 0 C2.31 0 4.62 0 7 0 C7.33 0.66 7.66 1.32 8 2 C7.071875 2.144375 6.14375 2.28875 5.1875 2.4375 C1.99274889 2.92100111 1.99274889 2.92100111 -1 4 C-0.67 2.68 -0.34 1.36 0 0 Z " fill="#249EE7" transform="translate(299,41)"/>
<path d="M0 0 C0.99 0.33 1.98 0.66 3 1 C3 1.99 3 2.98 3 4 C1.125 4.625 1.125 4.625 -1 5 C-1.66 4.34 -2.32 3.68 -3 3 C-2.01 2.67 -1.02 2.34 0 2 C0 1.34 0 0.68 0 0 Z " fill="#3760E4" transform="translate(333,132)"/>
<path d="M0 0 C1.32 0.33 2.64 0.66 4 1 C2.68 1.33 1.36 1.66 0 2 C0 1.34 0 0.68 0 0 Z " fill="#433782" transform="translate(135,0)"/>
<path d="M0 0 C0.66 0 1.32 0 2 0 C1.67 0.66 1.34 1.32 1 2 C0.67 1.34 0.34 0.68 0 0 Z " fill="#2F5DDD" transform="translate(272,116)"/>
<path d="M0 0 C0.33 0.66 0.66 1.32 1 2 C0.34 1.67 -0.32 1.34 -1 1 C-0.67 0.67 -0.34 0.34 0 0 Z " fill="#1C89E1" transform="translate(304,35)"/>
<path d="" fill="#3364E0" transform="translate(0,0)"/>
<path d="M0 0 C2 1 2 1 2 1 Z " fill="#2E71DC" transform="translate(332,113)"/>
<path d="" fill="#3065DC" transform="translate(0,0)"/>
<path d="M0 0 C2 1 2 1 2 1 Z " fill="#2277E4" transform="translate(262,59)"/>
<path d="M0 0 C2 1 2 1 2 1 Z " fill="#1C88DD" transform="translate(303,32)"/>
<path d="" fill="#3A5BD8" transform="translate(0,0)"/>
<path d="" fill="#2E51C8" transform="translate(0,0)"/>
<path d="" fill="#2B61DE" transform="translate(0,0)"/>
<path d="" fill="#2D53C8" transform="translate(0,0)"/>
<path d="" fill="#395BDB" transform="translate(0,0)"/>
<path d="" fill="#4443D3" transform="translate(0,0)"/>
<path d="" fill="#424DD5" transform="translate(0,0)"/>
<path d="" fill="#444BD6" transform="translate(0,0)"/>
<path d="" fill="#306DDA" transform="translate(0,0)"/>
<path d="" fill="#335BDF" transform="translate(0,0)"/>
<path d="" fill="#335DE1" transform="translate(0,0)"/>
<path d="" fill="#3858DA" transform="translate(0,0)"/>
<path d="" fill="#2962DC" transform="translate(0,0)"/>
<path d="" fill="#2D5FDF" transform="translate(0,0)"/>
<path d="" fill="#2672DE" transform="translate(0,0)"/>
<path d="" fill="#3363D8" transform="translate(0,0)"/>
<path d="" fill="#3061DE" transform="translate(0,0)"/>
<path d="" fill="#345FD6" transform="translate(0,0)"/>
<path d="" fill="#2F5DD6" transform="translate(0,0)"/>
<path d="" fill="#2C6FDB" transform="translate(0,0)"/>
<path d="" fill="#286CDD" transform="translate(0,0)"/>
<path d="" fill="#2964D8" transform="translate(0,0)"/>
<path d="" fill="#2271CB" transform="translate(0,0)"/>
<path d="" fill="#3065DC" transform="translate(0,0)"/>
<path d="" fill="#2771E2" transform="translate(0,0)"/>
<path d="" fill="#2C6DDC" transform="translate(0,0)"/>
<path d="" fill="#2677DF" transform="translate(0,0)"/>
<path d="" fill="#2A79BD" transform="translate(0,0)"/>
<path d="" fill="#2478D7" transform="translate(0,0)"/>
<path d="" fill="#2C80DB" transform="translate(0,0)"/>
<path d="" fill="#2777D9" transform="translate(0,0)"/>
<path d="" fill="#2F73DA" transform="translate(0,0)"/>
<path d="" fill="#2D64D7" transform="translate(0,0)"/>
<path d="" fill="#2476D4" transform="translate(0,0)"/>
<path d="" fill="#2988DD" transform="translate(0,0)"/>
<path d="" fill="#276ED5" transform="translate(0,0)"/>
<path d="" fill="#398FD2" transform="translate(0,0)"/>
<path d="" fill="#286BD9" transform="translate(0,0)"/>
<path d="" fill="#2478D8" transform="translate(0,0)"/>
<path d="" fill="#2772E0" transform="translate(0,0)"/>
<path d="" fill="#2871D9" transform="translate(0,0)"/>
<path d="" fill="#2A6AE1" transform="translate(0,0)"/>
<path d="" fill="#2469CE" transform="translate(0,0)"/>
<path d="" fill="#266ED7" transform="translate(0,0)"/>
<path d="" fill="#2772E2" transform="translate(0,0)"/>
<path d="" fill="#2970D7" transform="translate(0,0)"/>
<path d="" fill="#2586D7" transform="translate(0,0)"/>
<path d="" fill="#2574DB" transform="translate(0,0)"/>
<path d="" fill="#246ACE" transform="translate(0,0)"/>
<path d="" fill="#2574DD" transform="translate(0,0)"/>
<path d="" fill="#2574DD" transform="translate(0,0)"/>
<path d="" fill="#2472D8" transform="translate(0,0)"/>
<path d="" fill="#2471D9" transform="translate(0,0)"/>
<path d="" fill="#2C9AE3" transform="translate(0,0)"/>
<path d="" fill="#2471D9" transform="translate(0,0)"/>
<path d="" fill="#216FD0" transform="translate(0,0)"/>
<path d="" fill="#2070D0" transform="translate(0,0)"/>
<path d="" fill="#2C8FE4" transform="translate(0,0)"/>
<path d="" fill="#2790E5" transform="translate(0,0)"/>
<path d="" fill="#2896DB" transform="translate(0,0)"/>
<path d="" fill="#1F83DB" transform="translate(0,0)"/>
<path d="" fill="#1F83DB" transform="translate(0,0)"/>
<path d="" fill="#206DD2" transform="translate(0,0)"/>
<path d="" fill="#289AE8" transform="translate(0,0)"/>
<path d="" fill="#2694DB" transform="translate(0,0)"/>
<path d="" fill="#297DDF" transform="translate(0,0)"/>
<path d="" fill="#2174DF" transform="translate(0,0)"/>
<path d="" fill="#1D7DCF" transform="translate(0,0)"/>
<path d="" fill="#1F78DC" transform="translate(0,0)"/>
<path d="" fill="#1E7EE7" transform="translate(0,0)"/>
<path d="" fill="#1C7DD0" transform="translate(0,0)"/>
<path d="" fill="#1E87E6" transform="translate(0,0)"/>
<path d="" fill="#1D78D3" transform="translate(0,0)"/>
<path d="" fill="#1B7ED2" transform="translate(0,0)"/>
<path d="" fill="#1F88E5" transform="translate(0,0)"/>
<path d="" fill="#1E87E6" transform="translate(0,0)"/>
<path d="" fill="#2A90E1" transform="translate(0,0)"/>
<path d="" fill="#238FE5" transform="translate(0,0)"/>
<path d="" fill="#1D89E4" transform="translate(0,0)"/>
<path d="" fill="#1D88DF" transform="translate(0,0)"/>
<path d="" fill="#1C87DC" transform="translate(0,0)"/>
<path d="" fill="#2A2257" transform="translate(0,0)"/>
<path d="" fill="#2A2257" transform="translate(0,0)"/>
<path d="" fill="#2A2257" transform="translate(0,0)"/>
<path d="" fill="#3E3378" transform="translate(0,0)"/>
</svg>
